<?xml version="1.0" encoding="UTF-8" standalone="no" ?>
<!DOCTYPE svg PUBLIC "-//W3C//DTD SVG 1.1//EN" "http://www.w3.org/Graphics/SVG/1.1/DTD/svg11.dtd">
<svg xmlns="http://www.w3.org/2000/svg" xmlns:xlink="http://www.w3.org/1999/xlink" version="1.1" width="1280" height="1024" viewBox="0 0 1280 1024" xml:space="preserve">
<defs>
</defs>
<g transform="matrix(1 0 0 1 640 512)" id="background-logo"  >
<rect style="stroke: none; stroke-width: 0; stroke-dasharray: none; stroke-linecap: butt; stroke-dashoffset: 0; stroke-linejoin: miter; stroke-miterlimit: 4; fill: rgb(255,255,255); fill-opacity: 0; fill-rule: nonzero; opacity: 1;"  paint-order="stroke"  x="-640" y="-512" rx="0" ry="0" width="1280" height="1024" />
</g>
<g transform="matrix(1.9211538461538462 0 0 1.9211538461538462 640 407.89611746617203)" id="logo-logo"  >
<g style=""  paint-order="stroke"   >
		<g transform="matrix(0.7750831859839886 0 0 0.7750831859839886 0 0)"  >
<g style=""  paint-order="stroke"   >
		<g transform="matrix(1 0 0 1 0 0)"  >
<path style="stroke: none; stroke-width: 1; stroke-dasharray: none; stroke-linecap: butt; stroke-dashoffset: 0; stroke-linejoin: miter; stroke-miterlimit: 4; fill: rgb(224,185,127); fill-rule: nonzero; opacity: 1;"  paint-order="stroke"  transform=" translate(-100, -100)" d="M 100 0 C 44.9 0 0 44.9 0 100 C 0 155.1 44.9 200 100 200 C 155.1 200 200 155.1 200 100 C 200 44.9 155.1 0 100 0 z M 100 196.1 C 47 196.1 3.9 153 3.9 100 C 3.9 47 47 3.9 100 3.9 C 153 3.9 196.1 47 196.1 100 C 196.1 153 153 196.1 100 196.1 z" stroke-linecap="round" />
</g>
		<g transform="matrix(1 0 0 1 0 -86.7)"  >
<path style="stroke: none; stroke-width: 1; stroke-dasharray: none; stroke-linecap: butt; stroke-dashoffset: 0; stroke-linejoin: miter; stroke-miterlimit: 4; fill: rgb(224,185,127); fill-rule: nonzero; opacity: 1;"  paint-order="stroke"  transform=" translate(-100, -13.3)" d="M 61.1 18.5 C 73.3 12.6 86.4 9.7 100 9.7 C 113.7 9.7 126.8 12.7 139 18.6 L 139.2 18.700000000000003 L 140.1 17.1 L 139.9 17 C 127.4 11 113.9 7.9 100 7.9 C 86.1 7.9 72.7 11 60.2 17 L 59.9 17 L 60.8 18.6 L 61.1 18.5 z" stroke-linecap="round" />
</g>
		<g transform="matrix(1 0 0 1 -45.4 -79.1)"  >
<path style="stroke: none; stroke-width: 1; stroke-dasharray: none; stroke-linecap: butt; stroke-dashoffset: 0; stroke-linejoin: miter; stroke-miterlimit: 4; fill: rgb(224,185,127); fill-rule: nonzero; opacity: 1;"  paint-order="stroke"  transform=" translate(-54.6, -20.9)" d="M 56.1 19 C 54.800000000000004 19.7 53.5 20.5 52.2 21.2 L 52 21.3 L 52.9 22.900000000000002 L 53.1 22.8 C 54.4 22 55.7 21.3 57 20.6 L 57.2 20.5 L 56.300000000000004 18.9 L 56.1 19 z" stroke-linecap="round" />
</g>
		<g transform="matrix(1 0 0 1 45.400000000000006 -79)"  >
<path style="stroke: none; stroke-width: 1; stroke-dasharray: none; stroke-linecap: butt; stroke-dashoffset: 0; stroke-linejoin: miter; stroke-miterlimit: 4; fill: rgb(224,185,127); fill-rule: nonzero; opacity: 1;"  paint-order="stroke"  transform=" translate(-145.4, -21)" d="M 147.1 23 L 148 21.4 L 147.8 21.299999999999997 C 146.5 20.499999999999996 145.20000000000002 19.799999999999997 143.9 19.099999999999998 L 143.70000000000002 18.999999999999996 L 142.8 20.599999999999998 L 143 20.7 C 144.3 21.4 145.6 22.2 146.9 22.9 L 147.1 23 z" stroke-linecap="round" />
</g>
		<g transform="matrix(1 0 0 1 71.25 -41.74999999999999)"  >
<path style="stroke: none; stroke-width: 1; stroke-dasharray: none; stroke-linecap: butt; stroke-dashoffset: 0; stroke-linejoin: miter; stroke-miterlimit: 4; fill: rgb(224,185,127); fill-rule: nonzero; opacity: 1;"  paint-order="stroke"  transform=" translate(-171.25, -58.25000000000001)" d="M 190 92.8 L 190 93 L 191.9 93 L 191.9 92.7 C 189.70000000000002 64.7 175 39.5 151.7 23.60000000000001 L 151.5 23.500000000000007 L 150.6 25.10000000000001 L 150.79999999999998 25.20000000000001 C 173.5 40.8 187.8 65.4 190 92.8 z" stroke-linecap="round" />
</g>
		<g transform="matrix(1 0 0 1 91.17222222222222 -0.5)"  >
<path style="stroke: none; stroke-width: 1; stroke-dasharray: none; stroke-linecap: butt; stroke-dashoffset: 0; stroke-linejoin: miter; stroke-miterlimit: 4; fill: rgb(224,185,127); fill-rule: nonzero; opacity: 1;"  paint-order="stroke"  transform=" translate(-191.17222222222222, -99.5)" d="M 192.1 98 L 192.1 97 L 190.2 97 L 190.2 98 C 190.2 98.7 190.2 99.3 190.2 100 C 190.2 100.3 190.2 100.7 190.2 101 C 190.2 101.2 190.2 102 190.2 102 L 192.1 102 C 192.1 102 192.1 101.3 192.1 101 C 192.1 100.7 192.1 100.3 192.1 100 C 192.2 99.3 192.1 98.7 192.1 98 z" stroke-linecap="round" />
</g>
		<g transform="matrix(1 0 0 1 0.04999999999999716 86.6)"  >
<path style="stroke: none; stroke-width: 1; stroke-dasharray: none; stroke-linecap: butt; stroke-dashoffset: 0; stroke-linejoin: miter; stroke-miterlimit: 4; fill: rgb(224,185,127); fill-rule: nonzero; opacity: 1;"  paint-order="stroke"  transform=" translate(-100.05, -186.6)" d="M 139.5 181.2 C 127.1 187.2 113.8 190.29999999999998 100 190.29999999999998 C 86.2 190.29999999999998 73 187.29999999999998 60.6 181.2 L 60.4 181.1 L 59.5 182.7 L 59.7 182.79999999999998 C 72.3 188.99999999999997 85.9 192.1 100 192.1 C 114.1 192.1 127.7 189 140.4 182.79999999999998 L 140.6 182.7 L 139.7 181.1 L 139.5 181.2 z" stroke-linecap="round" />
</g>
		<g transform="matrix(1 0 0 1 -45.7 78.85000000000002)"  >
<path style="stroke: none; stroke-width: 1; stroke-dasharray: none; stroke-linecap: butt; stroke-dashoffset: 0; stroke-linejoin: miter; stroke-miterlimit: 4; fill: rgb(224,185,127); fill-rule: nonzero; opacity: 1;"  paint-order="stroke"  transform=" translate(-54.3, -178.85000000000002)" d="M 52.8 176.9 L 52.599999999999994 176.8 L 51.699999999999996 178.4 L 51.9 178.5 C 53.199999999999996 179.3 54.5 180 55.8 180.8 L 56 180.9 L 56.9 179.3 L 56.699999999999996 179.20000000000002 C 55.3 178.5 54 177.7 52.8 176.9 z" stroke-linecap="round" />
</g>
		<g transform="matrix(1 0 0 1 45.80000000000001 78.85000000000002)"  >
<path style="stroke: none; stroke-width: 1; stroke-dasharray: none; stroke-linecap: butt; stroke-dashoffset: 0; stroke-linejoin: miter; stroke-miterlimit: 4; fill: rgb(224,185,127); fill-rule: nonzero; opacity: 1;"  paint-order="stroke"  transform=" translate(-145.8, -178.85000000000002)" d="M 147.3 176.9 C 146 177.70000000000002 144.70000000000002 178.4 143.4 179.20000000000002 L 143.20000000000002 179.3 L 144.10000000000002 180.9 L 144.3 180.8 C 145.60000000000002 180.10000000000002 146.9 179.3 148.20000000000002 178.5 L 148.4 178.4 L 147.5 176.8 L 147.3 176.9 z" stroke-linecap="round" />
</g>
		<g transform="matrix(1 0 0 1 -91.15 -0.5)"  >
<path style="stroke: none; stroke-width: 1; stroke-dasharray: none; stroke-linecap: butt; stroke-dashoffset: 0; stroke-linejoin: miter; stroke-miterlimit: 4; fill: rgb(224,185,127); fill-rule: nonzero; opacity: 1;"  paint-order="stroke"  transform=" translate(-8.850000000000001, -99.5)" d="M 9.7 101 C 9.7 100.7 9.7 100.3 9.7 100 C 9.7 99.3 9.7 98.7 9.7 98 L 9.7 97 L 7.9 97 L 7.9 98 C 7.9 98.7 7.9 99.3 7.9 100 C 7.9 100.4 7.9 100.7 7.9 101.1 L 7.9 102 L 9.8 102 L 9.7 101 z" stroke-linecap="round" />
</g>
		<g transform="matrix(1 0 0 1 71.4 41)"  >
<path style="stroke: none; stroke-width: 1; stroke-dasharray: none; stroke-linecap: butt; stroke-dashoffset: 0; stroke-linejoin: miter; stroke-miterlimit: 4; fill: rgb(224,185,127); fill-rule: nonzero; opacity: 1;"  paint-order="stroke"  transform=" translate(-171.4, -141)" d="M 190.1 106.2 C 188.2 133.8 174 158.7 151.1 174.4 L 150.9 174.5 L 151.8 176.1 L 152 176 C 175.5 159.9 190 134.5 191.9 106.2 L 191.9 105.9 L 190 105.9 L 190.1 106.2 z" stroke-linecap="round" />
</g>
		<g transform="matrix(1 0 0 1 -71.35 41.14999999999998)"  >
<path style="stroke: none; stroke-width: 1; stroke-dasharray: none; stroke-linecap: butt; stroke-dashoffset: 0; stroke-linejoin: miter; stroke-miterlimit: 4; fill: rgb(224,185,127); fill-rule: nonzero; opacity: 1;"  paint-order="stroke"  transform=" translate(-28.65, -141.14999999999998)" d="M 9.9 106.2 L 9.9 106 L 8.1 106 L 8.1 106.3 C 10 134.6 24.6 160 48.1 176.1 L 48.300000000000004 176.29999999999998 L 49.2 174.7 L 49 174.6 C 26.1 158.7 11.8 133.9 9.9 106.2 z" stroke-linecap="round" />
</g>
		<g transform="matrix(1 0 0 1 -71.15 -41.650000000000006)"  >
<path style="stroke: none; stroke-width: 1; stroke-dasharray: none; stroke-linecap: butt; stroke-dashoffset: 0; stroke-linejoin: miter; stroke-miterlimit: 4; fill: rgb(224,185,127); fill-rule: nonzero; opacity: 1;"  paint-order="stroke"  transform=" translate(-28.85, -58.349999999999994)" d="M 48.5 23.6 C 25 39.5 10.3 64.7 8.1 92.8 L 8.1 93.1 L 10 93.1 L 10 92.89999999999999 C 12.2 65.5 26.5 40.79999999999999 49.4 25.299999999999997 L 49.6 25.199999999999996 L 48.7 23.599999999999994 L 48.5 23.6 z" stroke-linecap="round" />
</g>
</g>
</g>
</g>
</g>
<g transform="matrix(1.9211538461538462 0 0 1.9211538461538462 643.8053254807694 648.9595120944315)" id="text-logo-path-group"  >
<g style=""  paint-order="stroke"   >
		<g transform="matrix(1 0 0 1 0 0)" id="text-logo-path-0"  >
<path style="stroke: none; stroke-width: 0.8883104285682556; stroke-dasharray: none; stroke-linecap: butt; stroke-dashoffset: 0; stroke-linejoin: miter; stroke-miterlimit: 4; fill: rgb(224,185,127); fill-rule: nonzero; opacity: 1;"  paint-order="stroke"  transform=" translate(-166.925, 18.21)" d="M 23.2 -3.82 L 23.54 -3.42 L 23.14 0 L 5.13 0 L 5.42 -11 L 5.13 -36.54 L 9.8 -36.54 L 9.52 -11.4 L 9.69 -3.82 L 23.2 -3.82 Z M 45.09 -36.54 L 44.8 -11.4 L 45.03 0 L 40.41 0 L 40.7 -11 L 40.41 -36.54 L 45.09 -36.54 Z M 80.77 -36.82 Q 86.53 -36.82 91.48 -34.26 L 91.48 -34.26 L 90.57 -29.93 L 90 -29.81 Q 87.27 -31.52 84.96 -32.26 Q 82.65 -33 80.09 -33 L 80.09 -33 Q 67.72 -33 67.72 -17.73 L 67.72 -17.73 Q 67.72 -10.37 70.59 -6.93 Q 73.47 -3.48 79.52 -3.48 L 79.52 -3.48 Q 81.11 -3.48 82.74 -3.76 Q 84.36 -4.05 86.93 -4.84 L 86.93 -4.84 L 87.04 -9.12 L 86.98 -14.59 L 91.26 -14.93 L 91.14 -9.75 L 91.37 -1.77 Q 87.67 -0.63 84.82 -0.11 Q 81.97 0.4 79.29 0.4 L 79.29 0.4 Q 71.14 0.4 67.06 -4.22 Q 62.98 -8.84 62.98 -17.56 L 62.98 -17.56 Q 62.98 -26.96 67.6 -31.89 Q 72.22 -36.82 80.77 -36.82 L 80.77 -36.82 Z M 140.05 -36.54 L 139.82 -11.4 L 139.94 0 L 135.43 0 L 135.66 -11 L 135.6 -16.47 L 125.46 -16.53 L 116.17 -16.47 L 116.11 -11.4 L 116.28 0 L 111.78 0 L 111.95 -11 L 111.78 -36.54 L 116.34 -36.54 L 116.17 -20.35 L 125.86 -20.29 L 135.6 -20.35 L 135.43 -36.54 L 140.05 -36.54 Z M 182.4 -36.54 L 182.74 -36.08 L 182.4 -32.55 L 176.02 -32.89 L 172.31 -32.89 L 172.14 -11.4 L 172.31 0 L 167.69 0 L 168.04 -11 L 167.75 -32.89 L 164.05 -32.89 L 157.55 -32.55 L 157.26 -33 L 157.61 -36.54 L 182.4 -36.54 Z M 215.97 -19.04 Q 223.73 -17.5 223.73 -10.2 L 223.73 -10.2 Q 223.73 -5.02 219.96 -2.39 Q 216.2 0.23 208.73 0.23 L 208.73 0.23 Q 203.72 0.23 200.7 0 L 200.7 0 L 200.64 0 L 200.93 -11 L 200.64 -36.54 L 210.79 -36.59 Q 215.92 -36.59 218.68 -34.31 Q 221.45 -32.03 221.45 -27.7 L 221.45 -27.7 Q 221.45 -24.62 220.02 -22.4 Q 218.6 -20.18 215.97 -19.04 L 215.97 -19.04 Z M 216.77 -27.19 Q 216.77 -30.15 215.15 -31.49 Q 213.52 -32.83 209.87 -32.83 L 209.87 -32.83 L 205.26 -32.83 L 205.14 -20.58 L 211.41 -20.41 Q 216.77 -21.66 216.77 -27.19 L 216.77 -27.19 Z M 209.42 -3.59 Q 214.09 -3.59 216.6 -5.36 Q 219.11 -7.13 219.11 -10.43 L 219.11 -10.43 Q 219.11 -16.02 212.1 -16.82 L 212.1 -16.82 L 205.09 -16.76 L 205.03 -11.4 L 205.2 -3.76 Q 207.42 -3.59 209.42 -3.59 L 209.42 -3.59 Z M 247.32 -36.54 L 247.04 -11.4 L 247.27 0 L 242.65 0 L 242.93 -11 L 242.65 -36.54 L 247.32 -36.54 Z M 289.62 -36.54 L 289.96 -36.08 L 289.62 -32.55 L 283.23 -32.89 L 279.53 -32.89 L 279.36 -11.4 L 279.53 0 L 274.91 0 L 275.25 -11 L 274.97 -32.89 L 271.26 -32.89 L 264.77 -32.55 L 264.48 -33 L 264.82 -36.54 L 289.62 -36.54 Z M 328.43 -3.99 L 328.72 -3.53 L 328.38 0 L 307.86 0 L 308.14 -11 L 307.86 -36.54 L 328.43 -36.54 L 328.66 -36.08 L 328.32 -32.55 L 319.71 -32.72 L 312.47 -32.6 L 312.36 -20.63 L 319.2 -20.52 L 325.24 -20.69 L 325.58 -20.29 L 325.19 -16.76 L 318.8 -16.87 L 312.3 -16.82 L 312.25 -11.4 L 312.42 -3.82 L 319.66 -3.76 L 328.43 -3.99 Z" stroke-linecap="round" />
</g>
</g>
</g>
<g transform="matrix(1.9211538461538462 0 0 1.9211538461538462 647.2696461538461 406.84532315847986)" id="tagline-6cb99a38-efd5-424c-aab7-3ba1885aaca9-logo-path-group"  >
<g style=""  paint-order="stroke"   >
		<g transform="matrix(1 0 0 1 0 0)" id="tagline-6cb99a38-efd5-424c-aab7-3ba1885aaca9-logo-path-0"  >
<path style="stroke: none; stroke-width: 0; stroke-dasharray: none; stroke-linecap: butt; stroke-dashoffset: 0; stroke-linejoin: miter; stroke-miterlimit: 4; fill: rgb(224,185,127); fill-rule: nonzero; opacity: 1;"  paint-order="stroke"  transform=" translate(-21.630000000000003, 27.565)" d="M 35 -5.76 L 35.52 -5.16 L 34.92 0 L 7.74 0 L 8.17 -16.6 L 7.74 -55.13 L 14.79 -55.13 L 14.36 -17.2 L 14.62 -5.76 L 35 -5.76 Z" stroke-linecap="round" />
</g>
</g>
</g>
</svg>